<svg width="60" height="60" viewBox="0 0 60 60" fill="none" xmlns="http://www.w3.org/2000/svg">
    <path d="M8.29306 46.0564C4.50851 40.94 2.65286 34.6512 3.05358 28.2999C3.4543 21.9485 6.08564 15.9428 10.4832 11.3427C14.8808 6.74251 20.762 3.84356 27.0889 3.1574C33.4158 2.47124 39.7817 4.04198 45.0632 7.59243" stroke="#FFE1D5" stroke-width="2"/>
    <path d="M20.8228 16.8936C23.5906 14.9555 26.9009 13.9435 30.2792 14.0024C33.6576 14.0614 36.9306 15.1884 39.629 17.2218" stroke="#E83535" stroke-width="2"/>
    <path d="M20.8228 16.8936C23.5906 14.9555 26.9009 13.9435 30.2792 14.0024C33.6576 14.0614 36.9306 15.1884 39.629 17.2218" stroke="#F02828" stroke-width="2"/>
    <path d="M20.8228 16.8936C23.5906 14.9555 26.9009 13.9435 30.2792 14.0024C33.6576 14.0614 36.9306 15.1884 39.629 17.2218" stroke="#DB3217" stroke-width="2"/>
    <path d="M14.5134 52.1171C19.1841 55.3875 24.7702 57.0954 30.4712 56.9959C36.1722 56.8964 41.6953 54.9946 46.249 51.5632" stroke="#E83535" stroke-width="2"/>
    <path d="M14.5134 52.1171C19.1841 55.3875 24.7702 57.0954 30.4712 56.9959C36.1722 56.8964 41.6953 54.9946 46.249 51.5632" stroke="#F02828" stroke-width="2"/>
    <path d="M14.5134 52.1171C19.1841 55.3875 24.7702 57.0954 30.4712 56.9959C36.1722 56.8964 41.6953 54.9946 46.249 51.5632" stroke="#DB3217" stroke-width="2"/>
    <path d="M17.9549 47.2022C21.5876 49.7459 25.9324 51.0742 30.3665 50.9968C34.8006 50.9194 39.0964 49.4403 42.6381 46.7713" stroke="white" stroke-width="2"/>
    <path d="M24.2642 38.1915C25.9941 39.4028 28.0631 40.0353 30.1745 39.9985C32.286 39.9616 34.3316 39.2573 36.0182 37.9864" stroke="#E83535" stroke-width="2"/>
    <path d="M24.2642 38.1915C25.9941 39.4028 28.0631 40.0353 30.1745 39.9985C32.286 39.9616 34.3316 39.2573 36.0182 37.9864" stroke="#F02828" stroke-width="2"/>
    <path d="M24.2642 38.1915C25.9941 39.4028 28.0631 40.0353 30.1745 39.9985C32.286 39.9616 34.3316 39.2573 36.0182 37.9864" stroke="#DB3217" stroke-width="2"/>
    <path d="M12.7978 17.9549C10.2541 21.5876 8.9258 25.9324 9.0032 30.3665C9.0806 34.8006 10.5597 39.0964 13.2287 42.6381" stroke="#E83535" stroke-width="2"/>
    <path d="M12.7978 17.9549C10.2541 21.5876 8.9258 25.9324 9.0032 30.3665C9.0806 34.8006 10.5597 39.0964 13.2287 42.6381" stroke="#F02828" stroke-width="2"/>
    <path d="M12.7978 17.9549C10.2541 21.5876 8.9258 25.9324 9.0032 30.3665C9.0806 34.8006 10.5597 39.0964 13.2287 42.6381" stroke="#DB3217" stroke-width="2"/>
    <path d="M21.3989 23.9774C20.1271 25.7938 19.4629 27.9662 19.5016 30.1833C19.5403 32.4003 20.2799 34.5482 21.6143 36.3191" stroke="white" stroke-linecap="round" stroke-dasharray="2 6"/>
    <path d="M49.4454 10.5546C54.6027 15.7118 57.5 22.7065 57.5 30C57.5 37.2935 54.6027 44.2882 49.4454 49.4454" stroke="white" stroke-linecap="round" stroke-dasharray="2 6"/>
    <path d="M47.2022 17.9549C49.7459 21.5876 51.0742 25.9324 50.9968 30.3665C50.9194 34.8006 49.4403 39.0964 46.7713 42.6381" stroke="#E83535" stroke-width="2"/>
    <path d="M47.2022 17.9549C49.7459 21.5876 51.0742 25.9324 50.9968 30.3665C50.9194 34.8006 49.4403 39.0964 46.7713 42.6381" stroke="#F02828" stroke-width="2"/>
    <path d="M47.2022 17.9549C49.7459 21.5876 51.0742 25.9324 50.9968 30.3665C50.9194 34.8006 49.4403 39.0964 46.7713 42.6381" stroke="#DB3217" stroke-width="2"/>
    <path d="M38.1915 24.2642C39.4028 25.9941 40.0353 28.0631 39.9985 30.1745C39.9616 32.286 39.2573 34.3316 37.9864 36.0182" stroke="#E83535" stroke-width="2"/>
    <path d="M38.1915 24.2642C39.4028 25.9941 40.0353 28.0631 39.9985 30.1745C39.9616 32.286 39.2573 34.3316 37.9864 36.0182" stroke="#F02828" stroke-width="2"/>
    <path d="M38.1915 24.2642C39.4028 25.9941 40.0353 28.0631 39.9985 30.1745C39.9616 32.286 39.2573 34.3316 37.9864 36.0182" stroke="#DB3217" stroke-width="2"/>
    <circle cx="30" cy="30" r="5" fill="#E83535"/>
    <circle cx="30" cy="30" r="5" fill="#F02828"/>
    <circle cx="30" cy="30" r="5" fill="#DB3217"/>
</svg>
