<svg width="60" height="60" viewBox="0 0 60 60" fill="none" xmlns="http://www.w3.org/2000/svg">
    <g clip-path="url(#clip0)">
        <path d="M18.8763 38.9065C16.6838 36.1682 15.5784 32.7175 15.7716 29.2149C15.9649 25.7124 17.4433 22.4042 19.9237 19.9237" stroke="#E83535" stroke-width="1.5" stroke-linecap="round" stroke-dasharray="2 5"/>
        <path d="M18.8763 38.9065C16.6838 36.1682 15.5784 32.7175 15.7716 29.2149C15.9649 25.7124 17.4433 22.4042 19.9237 19.9237" stroke="#F02828" stroke-width="1.5" stroke-linecap="round" stroke-dasharray="2 5"/>
        <path d="M18.8763 38.9065C16.6838 36.1682 15.5784 32.7175 15.7716 29.2149C15.9649 25.7124 17.4433 22.4042 19.9237 19.9237" stroke="#DB3217" stroke-width="1.5" stroke-linecap="round" stroke-dasharray="2 5"/>
        <path d="M9.85902 35.9448C8.59088 31.6484 8.72988 27.059 10.2557 22.8471C11.7816 18.6353 14.6143 15.0218 18.34 12.5345" stroke="#E83535" stroke-width="2"/>
        <path d="M9.85902 35.9448C8.59088 31.6484 8.72988 27.059 10.2557 22.8471C11.7816 18.6353 14.6143 15.0218 18.34 12.5345" stroke="#F02828" stroke-width="2"/>
        <path d="M9.85902 35.9448C8.59088 31.6484 8.72988 27.059 10.2557 22.8471C11.7816 18.6353 14.6143 15.0218 18.34 12.5345" stroke="#DB3217" stroke-width="2"/>
        <path d="M7.54666 48.7459C3.9113 44.3916 1.62046 39.0742 0.953124 33.4411C0.285788 27.8081 1.27075 22.1026 3.78806 17.0194" stroke="white" stroke-width="1.5" stroke-linecap="round" stroke-dasharray="2 5"/>
        <path d="M39.8995 20.1005C41.1995 21.4005 42.2307 22.9439 42.9343 24.6424C43.6379 26.341 44 28.1615 44 30C44 31.8385 43.6379 33.659 42.9343 35.3576C42.2307 37.0561 41.1995 38.5995 39.8995 39.8995" stroke="#E83535" stroke-width="2"/>
        <path d="M39.8995 20.1005C41.1995 21.4005 42.2307 22.9439 42.9343 24.6424C43.6379 26.341 44 28.1615 44 30C44 31.8385 43.6379 33.659 42.9343 35.3576C42.2307 37.0561 41.1995 38.5995 39.8995 39.8995" stroke="#F02828" stroke-width="2"/>
        <path d="M39.8995 20.1005C41.1995 21.4005 42.2307 22.9439 42.9343 24.6424C43.6379 26.341 44 28.1615 44 30C44 31.8385 43.6379 33.659 42.9343 35.3576C42.2307 37.0561 41.1995 38.5995 39.8995 39.8995" stroke="#DB3217" stroke-width="2"/>
        <path d="M51.0443 27.0501C51.5009 30.3078 51.195 33.627 50.1507 36.7463C49.1063 39.8657 47.3521 42.7 45.026 45.026" stroke="#E83535" stroke-width="1.5" stroke-linecap="round" stroke-dasharray="2 5"/>
        <path d="M51.0443 27.0501C51.5009 30.3078 51.195 33.627 50.1507 36.7463C49.1063 39.8657 47.3521 42.7 45.026 45.026" stroke="#F02828" stroke-width="1.5" stroke-linecap="round" stroke-dasharray="2 5"/>
        <path d="M51.0443 27.0501C51.5009 30.3078 51.195 33.627 50.1507 36.7463C49.1063 39.8657 47.3521 42.7 45.026 45.026" stroke="#DB3217" stroke-width="1.5" stroke-linecap="round" stroke-dasharray="2 5"/>
        <path d="M43.014 4.08409C49.5111 7.34669 54.5458 12.9307 57.1205 19.7297C59.6952 26.5288 59.6223 34.047 56.916 40.7948" stroke="#E83535" stroke-width="2"/>
        <path d="M43.014 4.08409C49.5111 7.34669 54.5458 12.9307 57.1205 19.7297C59.6952 26.5288 59.6223 34.047 56.916 40.7948" stroke="#F02828" stroke-width="2"/>
        <path d="M43.014 4.08409C49.5111 7.34669 54.5458 12.9307 57.1205 19.7297C59.6952 26.5288 59.6223 34.047 56.916 40.7948" stroke="#DB3217" stroke-width="2"/>
        <circle cx="30" cy="30" r="5" fill="#1C1C1C" stroke="white" stroke-width="2"/>
        <rect x="29" y="36" width="2" height="24" fill="white"/>
    </g>
    <defs>
        <clipPath id="clip0">
            <rect width="60" height="60" fill="white"/>
        </clipPath>
    </defs>
</svg>
