<svg width="60" height="60" viewBox="0 0 60 60" fill="none" xmlns="http://www.w3.org/2000/svg">
    <path d="M52.9203 16.8469L52.9204 16.8477C53.0123 17.78 55.0836 41.4208 30.9098 54.7856L30.9067 54.7873C30.6622 54.9237 30.3845 54.9973 30.1003 54.9999C29.8161 55.0025 29.537 54.9339 29.2897 54.8019L29.2886 54.8014C16.6879 48.0973 11.1584 38.6391 8.76312 30.8413C7.56248 26.9326 7.14781 23.4333 7.03545 20.8994C6.9793 19.6332 6.99874 18.6106 7.03271 17.9016C7.06584 17.2103 7.11245 16.8232 7.11489 16.8029C7.11497 16.8023 7.115 16.802 7.11499 16.8021L7.11501 16.8021L7.11588 16.7954C7.18281 16.2809 7.51199 15.8171 8.01069 15.5699C8.01137 15.5696 8.01205 15.5692 8.01274 15.5689L29.3368 5.17203L29.3377 5.17162C29.5691 5.05854 29.8254 4.99943 30.0861 5C30.3468 5.00057 30.6029 5.0608 30.8337 5.17488L30.8361 5.17606L52.0215 15.5752L52.0231 15.576C52.2748 15.699 52.4879 15.8814 52.644 16.104C52.8 16.3264 52.8944 16.5821 52.9203 16.8469Z" stroke="#E83535" stroke-width="2"/>
    <path d="M52.9203 16.8469L52.9204 16.8477C53.0123 17.78 55.0836 41.4208 30.9098 54.7856L30.9067 54.7873C30.6622 54.9237 30.3845 54.9973 30.1003 54.9999C29.8161 55.0025 29.537 54.9339 29.2897 54.8019L29.2886 54.8014C16.6879 48.0973 11.1584 38.6391 8.76312 30.8413C7.56248 26.9326 7.14781 23.4333 7.03545 20.8994C6.9793 19.6332 6.99874 18.6106 7.03271 17.9016C7.06584 17.2103 7.11245 16.8232 7.11489 16.8029C7.11497 16.8023 7.115 16.802 7.11499 16.8021L7.11501 16.8021L7.11588 16.7954C7.18281 16.2809 7.51199 15.8171 8.01069 15.5699C8.01137 15.5696 8.01205 15.5692 8.01274 15.5689L29.3368 5.17203L29.3377 5.17162C29.5691 5.05854 29.8254 4.99943 30.0861 5C30.3468 5.00057 30.6029 5.0608 30.8337 5.17488L30.8361 5.17606L52.0215 15.5752L52.0231 15.576C52.2748 15.699 52.4879 15.8814 52.644 16.104C52.8 16.3264 52.8944 16.5821 52.9203 16.8469Z" stroke="#F02828" stroke-width="2"/>
    <path d="M52.9203 16.8469L52.9204 16.8477C53.0123 17.78 55.0836 41.4208 30.9098 54.7856L30.9067 54.7873C30.6622 54.9237 30.3845 54.9973 30.1003 54.9999C29.8161 55.0025 29.537 54.9339 29.2897 54.8019L29.2886 54.8014C16.6879 48.0973 11.1584 38.6391 8.76312 30.8413C7.56248 26.9326 7.14781 23.4333 7.03545 20.8994C6.9793 19.6332 6.99874 18.6106 7.03271 17.9016C7.06584 17.2103 7.11245 16.8232 7.11489 16.8029C7.11497 16.8023 7.115 16.802 7.11499 16.8021L7.11501 16.8021L7.11588 16.7954C7.18281 16.2809 7.51199 15.8171 8.01069 15.5699C8.01137 15.5696 8.01205 15.5692 8.01274 15.5689L29.3368 5.17203L29.3377 5.17162C29.5691 5.05854 29.8254 4.99943 30.0861 5C30.3468 5.00057 30.6029 5.0608 30.8337 5.17488L30.8361 5.17606L52.0215 15.5752L52.0231 15.576C52.2748 15.699 52.4879 15.8814 52.644 16.104C52.8 16.3264 52.8944 16.5821 52.9203 16.8469Z" stroke="#DB3217" stroke-width="2"/>
    <path d="M46.9417 20.4169L46.9418 20.4177C47.0071 21.0633 48.5569 38.1829 30.571 47.8717L30.5679 47.8734C30.4198 47.9538 30.2494 47.9984 30.0732 48C29.897 48.0015 29.7255 47.96 29.5755 47.882L29.5744 47.8814C20.189 43.0161 16.0856 36.1638 14.3091 30.5287C12.5259 24.8722 13.0813 20.4124 13.0834 20.3955L13.0834 20.3954L13.0835 20.3954L13.0844 20.3886C13.1208 20.1154 13.3036 19.8489 13.6091 19.701C13.6098 19.7007 13.6104 19.7004 13.6111 19.7L29.6031 12.1029L29.6039 12.1025C29.7447 12.0354 29.9025 11.9997 30.0641 12C30.2257 12.0003 30.3833 12.0368 30.5237 12.1044L30.5261 12.1056L46.4151 19.705L46.4167 19.7057C46.5698 19.7786 46.6955 19.8848 46.7855 20.0098C46.8752 20.1345 46.9274 20.2747 46.9417 20.4169Z" stroke="white" stroke-width="2"/>
    <path d="M39.7761 23.878C39.8821 24.0313 39.947 24.2089 39.9648 24.3941C40.0069 24.8274 40.8849 35.072 30.5807 40.8565C30.4175 40.9488 30.2333 40.9982 30.0456 41C29.8578 41.0017 29.6727 40.9557 29.5079 40.8664C18.7841 35.0731 20.0374 24.4656 20.0518 24.3589C20.0983 23.9959 20.3252 23.6802 20.6541 23.5152L29.5411 19.1156C29.695 19.0392 29.8647 18.9996 30.0368 19C30.2088 19.0004 30.3784 19.0407 30.532 19.1178L39.3592 23.5174C39.5267 23.6005 39.6702 23.7246 39.7761 23.878Z" stroke="#E83535" stroke-width="1.5" stroke-linecap="round" stroke-dasharray="2 3"/>
    <path d="M39.7761 23.878C39.8821 24.0313 39.947 24.2089 39.9648 24.3941C40.0069 24.8274 40.8849 35.072 30.5807 40.8565C30.4175 40.9488 30.2333 40.9982 30.0456 41C29.8578 41.0017 29.6727 40.9557 29.5079 40.8664C18.7841 35.0731 20.0374 24.4656 20.0518 24.3589C20.0983 23.9959 20.3252 23.6802 20.6541 23.5152L29.5411 19.1156C29.695 19.0392 29.8647 18.9996 30.0368 19C30.2088 19.0004 30.3784 19.0407 30.532 19.1178L39.3592 23.5174C39.5267 23.6005 39.6702 23.7246 39.7761 23.878Z" stroke="#F02828" stroke-width="1.5" stroke-linecap="round" stroke-dasharray="2 3"/>
    <path d="M39.7761 23.878C39.8821 24.0313 39.947 24.2089 39.9648 24.3941C40.0069 24.8274 40.8849 35.072 30.5807 40.8565C30.4175 40.9488 30.2333 40.9982 30.0456 41C29.8578 41.0017 29.6727 40.9557 29.5079 40.8664C18.7841 35.0731 20.0374 24.4656 20.0518 24.3589C20.0983 23.9959 20.3252 23.6802 20.6541 23.5152L29.5411 19.1156C29.695 19.0392 29.8647 18.9996 30.0368 19C30.2088 19.0004 30.3784 19.0407 30.532 19.1178L39.3592 23.5174C39.5267 23.6005 39.6702 23.7246 39.7761 23.878Z" stroke="#DB3217" stroke-width="1.5" stroke-linecap="round" stroke-dasharray="2 3"/>
</svg>
