<svg width="84" height="21" viewBox="0 0 84 21" fill="none" xmlns="http://www.w3.org/2000/svg">
    <path d="M6.21286 20.2907H0.754883V4.1065L6.21286 2.29483V20.2907Z" fill="#9A9A9A"/>
    <path d="M50.4823 12.4401V2.17401L45.0243 3.98568V11.7758C45.0243 13.4788 43.6416 14.8557 41.9315 14.8557C40.2213 14.8557 38.8386 13.4788 38.8386 11.7758V2.17401L33.3806 3.98568V12.4401C33.3806 16.776 36.9101 20.2907 41.2644 20.2907H42.5985C46.9528 20.2907 50.4823 16.776 50.4823 12.4401Z" fill="#9A9A9A"/>
    <path d="M21.6165 20.2907L19.7972 14.8557H16.5224C14.8486 14.8557 13.4902 13.503 13.4902 11.8362V0L8.03223 1.81167V12.4401C8.03223 16.776 11.5617 20.2907 15.916 20.2907H21.6165Z" fill="#9A9A9A"/>
    <path d="M21.7368 14.8557H22.9497C24.6235 14.8557 25.9819 13.503 25.9819 11.8362V3.98568L31.4398 2.17401V12.4401C31.4398 16.776 27.9104 20.2907 23.5561 20.2907L21.7368 14.8557Z" fill="#9A9A9A"/>
    <path d="M11.0654 12.0179H18.3427L16.5234 6.58286H11.0654V12.0179Z" fill="#9A9A9A"/>
    <path d="M83.3513 20.2907L81.532 14.8557H78.2573C76.5835 14.8557 75.2251 13.503 75.2251 11.8362V0L69.7671 1.81167V12.4401C69.7671 16.776 73.2966 20.2907 77.6508 20.2907H83.3513Z" fill="#9A9A9A"/>
    <path d="M72.8003 12.0173H80.0776L78.2583 6.58234H72.8003V12.0173Z" fill="#9A9A9A"/>
    <path d="M52.5863 19.9524C52.5863 19.9524 57.9963 20.4145 61.6129 20.1897C66.2145 19.9041 68.0352 17.7586 67.8227 14.3676C67.6549 11.6846 66.4629 10.3888 63.7624 9.54501C59.9437 8.35189 57.727 8.39403 57.6678 7.45302C57.6374 6.97025 58.2693 6.91885 58.9339 6.87754C59.5988 6.83623 66.2846 7.13021 66.2846 7.13021L67.0554 2.10414C67.0554 2.10414 62.1302 1.64924 58.5133 1.87405C53.7273 2.17115 52.1023 4.48628 52.3148 7.87718C52.4491 10.0223 53.6112 11.5818 55.8199 12.3797C59.5192 13.716 62.4145 13.6636 62.4739 14.615C62.5035 15.0877 61.7646 15.1482 61.3009 15.1771C60.6362 15.2184 53.1415 14.9234 53.1415 14.9234L52.5863 19.9524Z" fill="#9A9A9A"/>
</svg>
