<svg width="22" height="20" viewBox="0 0 22 20" fill="none" xmlns="http://www.w3.org/2000/svg">
    <path fill-rule="evenodd" clip-rule="evenodd" d="M3 0H5V10.126C6.72523 10.5701 8 12.1362 8 14C8 15.8638 6.72523 17.4299 5 17.874V20H3V17.874C1.27477 17.4299 0 15.8638 0 14C0 12.1362 1.27477 10.5701 3 10.126V0ZM17 16.874C15.2748 16.4299 14 14.8638 14 13C14 11.1362 15.2748 9.57006 17 9.12602V0H19V9.12602C20.7252 9.57006 22 11.1362 22 13C22 14.8638 20.7252 16.4299 19 16.874V20H17V16.874ZM10 20V9.87398C8.27477 9.42994 7 7.86384 7 6C7 4.13616 8.27477 2.57006 10 2.12602V0H12V2.12602C13.7252 2.57006 15 4.13616 15 6C15 7.86384 13.7252 9.42994 12 9.87398V20H10ZM6 14C6 15.1046 5.10457 16 4 16C2.89543 16 2 15.1046 2 14C2 12.8954 2.89543 12 4 12C5.10457 12 6 12.8954 6 14ZM11 8C12.1046 8 13 7.10457 13 6C13 4.89543 12.1046 4 11 4C9.89543 4 9 4.89543 9 6C9 7.10457 9.89543 8 11 8ZM20 13C20 14.1046 19.1046 15 18 15C16.8954 15 16 14.1046 16 13C16 11.8954 16.8954 11 18 11C19.1046 11 20 11.8954 20 13Z" fill="white"/>
</svg>
