<svg width="111" height="109" viewBox="0 0 111 109" fill="none" xmlns="http://www.w3.org/2000/svg">
    <path fill-rule="evenodd" clip-rule="evenodd" d="M53.197 1.39349C52.689 2.15981 52.0077 3.21919 51.6831 3.74757C50.5057 5.66428 50.2557 6.0529 49.0498 7.8431C48.3755 8.84424 47.7485 9.7316 47.6567 9.81503C47.565 9.89846 47.3775 10.126 47.2401 10.3207C46.9165 10.7792 45.0514 12.6257 44.5886 12.9457C44.3919 13.0818 44.2081 13.2227 44.18 13.2591C44.0756 13.3944 42.5625 14.2567 41.5419 14.7626C40.5758 15.2416 38.5541 15.9811 37.6176 16.1982C37.407 16.247 37.0392 16.3359 36.8005 16.3958C36.1616 16.556 34.574 16.7991 32.7915 17.0095C31.8018 17.1264 18.7775 17.1562 16.7047 17.0462L15.5301 16.9839L15.1681 17.3181C14.969 17.5018 14.6947 17.8114 14.5585 18.0061C14.4224 18.2008 14.1471 18.5193 13.9469 18.714C13.7467 18.9086 13.4712 19.2272 13.3347 19.4218C13.1982 19.6165 12.9682 19.8895 12.8234 20.0286C12.6786 20.1676 12.4493 20.4407 12.3137 20.6353C12.1781 20.83 12.0398 21.012 12.0063 21.0398C11.9728 21.0676 11.8349 21.2497 11.6999 21.4443C11.5648 21.639 11.427 21.821 11.3935 21.8488C11.36 21.8766 11.2221 22.0587 11.087 22.2533C10.952 22.448 10.8133 22.63 10.7788 22.6578C10.5699 22.8262 10.0662 23.6892 10.1233 23.7807C10.1671 23.8509 10.3262 23.8632 10.5629 23.815C10.7669 23.7733 15.7369 23.705 21.6073 23.6631C27.7514 23.6193 32.7143 23.5419 33.3022 23.4807C35.2076 23.2824 37.2502 22.9574 38.4347 22.6642C38.6734 22.605 39.0526 22.5112 39.2773 22.4556C39.502 22.4 39.8583 22.3149 40.0689 22.2667C40.4183 22.1866 41.8443 21.7062 42.931 21.3026C44.0324 20.8934 47.4424 19.0609 47.9415 18.6101C48.0354 18.5252 48.2732 18.3453 48.4698 18.2104C48.6664 18.0755 48.8963 17.8925 48.9805 17.8039C49.0648 17.7152 49.2946 17.5314 49.4912 17.3955C49.9511 17.0776 51.2068 15.835 51.531 15.3769C51.6687 15.1822 51.8999 14.9092 52.0447 14.7701C52.1895 14.6311 52.4189 14.358 52.5545 14.1634C52.6901 13.9687 52.8754 13.7412 52.9663 13.6578C53.0572 13.5743 53.3327 13.2103 53.5784 12.8488C53.8241 12.4872 54.0777 12.1388 54.1418 12.0744C54.2059 12.0098 54.4106 11.714 54.5966 11.417C54.7826 11.1199 55.2441 10.399 55.6222 9.81503C56.0002 9.23104 56.5753 8.32092 56.9001 7.79254C57.2249 7.26417 57.6744 6.53607 57.899 6.17455C58.4133 5.34695 60.7359 1.89406 60.8239 1.8262C60.86 1.7984 61 1.61637 61.135 1.42171C61.2701 1.22704 61.4084 1.04502 61.4425 1.01721C61.5798 0.905063 61.85 0.458902 61.85 0.344328C61.85 0.183844 60.6427 0.110326 56.9894 0.0485393L54.1207 0L53.197 1.39349ZM46.2856 0.68532C46.2452 0.725264 45.9504 0.7915 45.6303 0.832354C44.9708 0.916793 44.219 1.05725 43.6182 1.20854C43.3935 1.26507 43.0028 1.36103 42.7501 1.42171C42.4973 1.48238 42.1181 1.57552 41.9074 1.62861C41.1945 1.8082 40.7087 1.92703 40.3243 2.01571C39.863 2.1222 36.4037 3.26379 35.9036 3.47453C35.7087 3.55665 35.2965 3.72471 34.9875 3.84788C33.3841 4.48739 30.0063 6.07282 28.9358 6.68826C28.5567 6.90629 27.9132 7.2763 27.5058 7.51051C26.746 7.94736 23.4353 10.0987 23.3437 10.215C23.3156 10.2507 23.1318 10.3892 22.9351 10.5229C22.7385 10.6566 22.5547 10.7931 22.5266 10.8263C22.4985 10.8594 22.3146 10.996 22.118 11.1296C21.9214 11.2633 21.7376 11.3999 21.7095 11.433C21.6814 11.4662 21.4975 11.6027 21.3009 11.7365C21.1043 11.8702 20.8745 12.0522 20.7902 12.1409C20.706 12.2296 20.4761 12.4116 20.2795 12.5453C19.6469 12.9757 19.5952 13.2037 20.1519 13.1093C21.2031 12.931 21.824 12.8329 22.4755 12.7422C22.8687 12.6875 23.5008 12.5981 23.8799 12.5435C24.2591 12.489 24.8797 12.4004 25.2588 12.3467C25.6379 12.293 26.2355 12.202 26.5866 12.1444C26.9378 12.0869 27.4892 11.9964 27.8123 11.9433C28.7691 11.786 30.2438 11.4948 30.8764 11.3383C31.5323 11.1759 32.1385 11.0287 32.5362 10.9353C33.1774 10.7847 35.9561 9.83788 36.5774 9.55838C38.1976 8.82917 38.7755 8.54289 39.4816 8.11968C40.903 7.26781 42.0836 6.44162 42.5458 5.97534C42.7986 5.7203 43.1663 5.40014 43.3629 5.26383C43.8139 4.95115 44.0673 4.70036 44.3841 4.25319C44.5219 4.05853 44.8897 3.64897 45.2014 3.34307C45.5131 3.03717 45.8797 2.62762 46.0161 2.43295C46.1525 2.23829 46.3375 2.01076 46.4271 1.92733C46.5166 1.8439 46.7012 1.61637 46.8371 1.42171C46.973 1.22704 47.1431 1.0076 47.2153 0.934187C47.2874 0.860669 47.3463 0.75823 47.3463 0.706657C47.3463 0.597038 46.3941 0.577926 46.2856 0.68532ZM68.3797 1.64873C68.2353 1.77413 67.9171 2.17256 67.6724 2.53408C67.4278 2.8956 67.1964 3.21414 67.1581 3.24195C67.0756 3.30191 66.2758 4.58508 65.2985 6.22511C65.0997 6.55883 64.3315 8.01502 63.5914 9.46109C62.2269 12.1271 60.8882 14.6461 60.1519 15.9331C59.7548 16.6269 58.5084 18.5131 58.381 18.6128C58.3454 18.6407 58.2059 18.8227 58.0709 19.0173C57.9358 19.212 57.798 19.394 57.7645 19.4218C57.731 19.4497 57.5911 19.6317 57.4536 19.8263C57.1292 20.2862 54.2455 23.1412 53.781 23.4625C53.5844 23.5986 53.4006 23.737 53.3725 23.7702C53.3444 23.8034 53.1606 23.9399 52.9639 24.0736C52.7673 24.2073 52.5835 24.3468 52.5554 24.3837C52.4709 24.4948 50.076 26.0132 49.2299 26.4921C48.7961 26.7376 48.2594 27.0005 48.0374 27.0763C47.8153 27.152 47.4518 27.3058 47.2296 27.4181C46.7981 27.636 45.1973 28.1851 44.563 28.3327C44.1782 28.4223 43.734 28.5311 42.9288 28.733C42.4132 28.8623 41.5726 29 40.4519 29.1389C37.0684 29.5582 32.6021 29.5555 25.2843 29.1298C21.018 28.8816 18.9784 28.8169 15.3769 28.8154C10.7797 28.8136 7.12926 29.0035 6.81304 29.2608C6.66412 29.3822 5.15012 32.3267 4.91806 32.9466C4.83983 33.1555 4.67906 33.5654 4.56088 33.8573C4.20207 34.7434 3.96307 35.3323 3.82375 35.6737C3.75082 35.8523 3.71211 36.0186 3.73765 36.0432C3.78146 36.0853 4.25682 36.0315 5.92903 35.7953C8.42724 35.4423 11.2869 35.2851 15.1726 35.2872C18.3711 35.2891 20.0619 35.3444 24.7736 35.6015C29.7646 35.8739 30.9877 35.9149 34.1704 35.9175C38.5673 35.9208 40.9458 35.7415 43.6182 35.2051C43.8991 35.1487 44.3587 35.0585 44.6396 35.0046C45.8898 34.7646 46.8288 34.4888 49.0069 33.7216C49.8343 33.4302 52.71 32.0182 53.781 31.3775C54.629 30.8702 56.3567 29.7392 56.4367 29.639C56.4647 29.6039 56.6486 29.4657 56.8452 29.332C57.0418 29.1983 57.2257 29.0618 57.2538 29.0287C57.2819 28.9955 57.4657 28.8583 57.6623 28.7237C57.8589 28.5891 58.1807 28.3167 58.3773 28.1185C58.5739 27.9203 58.8956 27.6461 59.0923 27.5093C59.5564 27.1863 61.4208 25.3398 61.7447 24.8826C61.8825 24.6879 62.1137 24.4149 62.2586 24.2758C62.4034 24.1368 62.6327 23.8637 62.7682 23.6691C62.9039 23.4744 63.0422 23.2924 63.0757 23.2646C63.1092 23.2368 63.2471 23.0547 63.3821 22.8601C63.5171 22.6654 63.6567 22.4834 63.6925 22.4556C63.8085 22.3652 65.1665 20.3015 65.6222 19.523C65.8664 19.1058 66.2155 18.5143 66.398 18.2084C66.5806 17.9025 67.4271 16.287 68.2791 14.6184C69.8005 11.6393 70.6952 9.95772 71.2924 8.95517C71.6552 8.3463 73.3974 5.74032 73.4895 5.66893C73.5254 5.64112 73.6656 5.4591 73.8013 5.26443C73.9368 5.06977 74.1679 4.79673 74.3149 4.65769C74.4619 4.51864 74.7134 4.20799 74.8739 3.96731C75.104 3.62207 75.1367 3.51195 75.0287 3.44591C74.7991 3.30535 69.9609 1.76593 69.3061 1.62507C69.1095 1.5828 68.8797 1.51949 68.7954 1.4844C68.7074 1.4478 68.5305 1.51767 68.3797 1.64873ZM84.5258 8.57181C84.1424 8.83766 80.8278 12.1461 80.5448 12.5454C80.4069 12.7401 80.1755 13.0131 80.0307 13.1521C79.8859 13.2912 79.6565 13.5642 79.5209 13.7589C79.3853 13.9535 79.201 14.1811 79.1115 14.2645C79.0219 14.3479 78.838 14.5755 78.703 14.7701C78.5679 14.9648 78.43 15.1468 78.3965 15.1746C78.363 15.2024 78.2251 15.3845 78.0901 15.5791C77.955 15.7738 77.8154 15.9558 77.7797 15.9836C77.666 16.0722 76.3102 18.1301 75.8642 18.8909C75.6278 19.2942 75.2543 19.9313 75.0342 20.3067C74.5905 21.0633 72.8308 24.6132 72.177 26.0708C71.9463 26.5852 71.5736 27.4157 71.3489 27.9163C71.1242 28.4169 70.7515 29.2474 70.5208 29.7618C69.7864 31.3988 68.1754 34.6142 67.6961 35.3995C67.1886 36.2309 66.4473 37.3422 66.3469 37.422C66.3118 37.4498 66.1727 37.6318 66.0376 37.8265C65.6326 38.4101 65.3058 38.6521 65.0163 38.5829C64.8759 38.5493 64.5541 38.4821 64.3013 38.4333C64.0485 38.3846 63.6349 38.2936 63.3821 38.231C63.1293 38.1684 62.7041 38.0745 62.4373 38.0224C62.1705 37.9703 61.7338 37.8835 61.467 37.8297C59.9645 37.5266 59.1608 37.3873 57.9177 37.2143C57.5244 37.1596 56.881 37.0679 56.4877 37.0107C53.5561 36.5836 49.0196 36.5818 46.4781 37.0069C44.7291 37.2994 44.2485 37.4199 42.699 37.9544C40.7858 38.6144 40.5852 38.6935 39.6564 39.1544C38.5123 39.7222 36.2079 41.1176 36.0089 41.3631C35.9808 41.3978 35.797 41.5374 35.6003 41.6735C35.1613 41.9773 32.4166 44.6832 32.1708 45.0545C31.9966 45.3179 31.9751 45.3224 31.1665 45.2688C30.712 45.2387 29.8576 45.1656 29.2677 45.1064C24.5343 44.6311 18.721 44.7099 14.4576 45.3073C14.0363 45.3663 13.3928 45.4566 13.0277 45.5081C12.6625 45.5595 12.111 45.6518 11.802 45.7131C11.493 45.7743 10.9875 45.8659 10.6785 45.9164C9.89866 46.0439 9.17735 46.1868 8.63571 46.3209C8.38292 46.3835 7.96925 46.4745 7.71646 46.5232C7.46367 46.5718 7.07299 46.6579 6.84828 46.7145C6.31073 46.8498 5.66265 47.0075 5.18853 47.1184C4.97792 47.1676 4.55271 47.2848 4.24374 47.3787C3.71221 47.5402 2.92707 47.7646 1.89455 48.0501C1.16824 48.2509 0.904315 48.4153 0.821787 48.7188C0.614446 49.4809 0.390252 54.9845 0.5597 55.1522C0.631095 55.2229 0.989296 55.1537 1.68793 54.9344C2.25102 54.7577 3.15974 54.4799 3.70751 54.3172C4.25518 54.1544 4.95616 53.9445 5.26513 53.8507C5.5741 53.7567 5.9993 53.6396 6.20991 53.5904C6.42063 53.5411 6.77678 53.4553 7.00149 53.3996C7.22619 53.344 7.59389 53.253 7.8186 53.1974C8.0433 53.1418 8.39956 53.0529 8.61018 52.9998C9.50368 52.7747 9.94176 52.6735 10.4231 52.581C10.704 52.5271 11.1636 52.4369 11.4445 52.3805C11.7254 52.3242 12.2195 52.2346 12.5425 52.1815C12.8656 52.1284 13.4171 52.0379 13.7682 51.9804C16.481 51.5355 19.8572 51.2667 22.7309 51.2667C26.0305 51.2667 28.0421 51.4452 28.0421 51.738C28.0421 51.7657 27.9281 52.011 27.7888 52.2832C27.6496 52.5554 27.4705 52.9521 27.3909 53.1646C27.3115 53.3773 27.1496 53.7902 27.0314 54.0822C26.9131 54.3743 26.7245 54.8407 26.6121 55.1187C26.4998 55.3968 26.3108 55.8632 26.1923 56.1553C25.947 56.7597 25.33 58.4369 24.8101 59.9128C24.616 60.4638 24.4126 60.9972 24.358 61.098C24.2667 61.2671 24.0247 61.2851 21.2733 61.3279C19.6314 61.3534 17.7822 61.4213 17.1643 61.4789C15.4179 61.6415 13.3507 61.9091 12.4404 62.0906C11.6325 62.2516 10.9373 62.3891 10.3976 62.4945C10.1307 62.5466 9.70561 62.6405 9.45282 62.7031C9.20003 62.7657 8.78636 62.8535 8.53357 62.8984C8.28078 62.9432 7.82115 63.0575 7.51218 63.1524C7.20321 63.2472 6.62868 63.416 6.23545 63.5275C4.78671 63.9382 1.98954 64.8874 1.7156 65.0611C1.58129 65.1463 1.61265 65.6464 1.79752 66.3688C1.85084 66.5775 1.94051 66.9301 1.99669 67.1525C2.2408 68.1193 2.33048 68.4559 2.51545 69.0992C2.91022 70.4723 3.15862 71.25 3.22899 71.3325C3.26862 71.3789 3.44114 71.3453 3.61253 71.2575C3.94969 71.0849 8.05035 69.7084 8.63571 69.5713C8.83233 69.5253 9.17704 69.4421 9.40175 69.3865C9.62646 69.3309 10.0057 69.2378 10.2444 69.1797C10.4831 69.1215 10.8739 69.0256 11.1126 68.9664C11.3513 68.9074 11.7649 68.8164 12.0318 68.7642C12.2987 68.7121 12.7583 68.6213 13.0532 68.5625C13.3481 68.5038 13.8882 68.4136 14.2533 68.3622C14.6185 68.3107 15.262 68.2201 15.6833 68.1608C17.6581 67.8825 21.2638 67.6821 21.4249 67.8416C21.5294 67.9451 20.4594 70.1387 19.6895 71.3998C19.175 72.2425 17.6277 74.5567 17.526 74.6357C17.4901 74.6636 17.3504 74.8456 17.2153 75.0403C17.0802 75.2349 16.8964 75.4624 16.8068 75.5459C16.7172 75.6293 16.5314 75.8568 16.394 76.0515C16.0706 76.5095 13.3913 79.1629 12.9255 79.4864C12.7289 79.623 12.4531 79.852 12.3127 79.9953C12.1723 80.1387 11.8965 80.3665 11.6999 80.5016C11.5033 80.6366 11.293 80.7941 11.2326 80.8516C11.1722 80.909 10.5645 81.3201 9.88221 81.765C9.19993 82.21 8.6159 82.6385 8.58423 82.7174C8.53653 82.8366 10.3743 85.7344 10.7329 86.1054C10.7909 86.1654 10.9503 86.3738 11.087 86.5684C11.2238 86.7631 11.393 86.9809 11.4631 87.0524C11.5332 87.124 11.6665 87.3098 11.7592 87.4653C12.1181 88.0668 12.2123 88.0552 13.4118 87.2613C14.0151 86.8621 14.5317 86.5065 14.5598 86.4712C14.5878 86.4359 14.7717 86.2976 14.9683 86.1639C15.1649 86.0302 15.3488 85.8937 15.3769 85.8606C15.405 85.8274 15.5888 85.6905 15.7854 85.5562C15.982 85.422 16.2578 85.195 16.3983 85.0516C16.5387 84.9082 16.8145 84.6791 17.0111 84.5425C17.4759 84.2195 20.9712 80.7589 21.2974 80.2987C21.4354 80.104 21.6668 79.831 21.8116 79.692C21.9564 79.5529 22.1857 79.2799 22.3213 79.0852C22.4569 78.8906 22.5952 78.7085 22.6287 78.6807C22.6622 78.6529 22.8001 78.4709 22.9351 78.2762C23.0702 78.0816 23.2098 77.8995 23.2455 77.8717C23.358 77.7841 24.7131 75.7287 25.1456 74.9897C25.3735 74.6004 25.747 73.9633 25.9757 73.5739C26.6196 72.4778 28.4506 68.6723 28.4506 68.4304C28.4506 68.1526 28.8326 67.9335 29.1872 68.0082C29.3719 68.047 29.9138 68.1197 30.3913 68.1696C31.4358 68.2788 32.6305 68.4246 33.6342 68.5655C35.7483 68.8623 35.9595 68.8943 37.3632 69.1323C37.5744 69.1681 37.7745 69.2412 37.8079 69.2947C37.8414 69.3483 37.7184 69.6277 37.5349 69.9156C35.9792 72.3552 36.0151 72.2902 32.1338 79.692C31.4776 80.9434 30.7545 82.2858 30.5268 82.6751C30.2991 83.0645 29.9323 83.7016 29.7114 84.0909C29.4906 84.4802 29.0775 85.14 28.7932 85.5572C28.509 85.9743 28.2018 86.4592 28.1105 86.6347C28.0193 86.8102 27.8837 87.015 27.809 87.0897C27.7344 87.1646 27.4725 87.5215 27.227 87.883C26.9816 88.2446 26.7521 88.5631 26.717 88.5909C26.682 88.6187 26.5429 88.8008 26.4078 88.9954C26.2727 89.1901 26.0889 89.4176 25.9993 89.501C25.9097 89.5845 25.7252 89.812 25.5892 90.0067C25.4533 90.2013 25.1781 90.5199 24.9779 90.7145C24.7777 90.9092 24.5008 91.2277 24.3626 91.4224C24.038 91.8796 22.3771 93.5244 21.9137 93.8474C21.7171 93.9845 21.3494 94.3039 21.0966 94.5573C20.8438 94.8106 20.4761 95.1282 20.2795 95.263C19.9282 95.504 19.7735 95.6612 19.7704 95.7806C19.7676 95.8875 20.1163 96.2286 20.4838 96.4786C20.6804 96.6124 20.9102 96.7944 20.9945 96.8831C21.0788 96.9718 21.3086 97.1538 21.5052 97.2875C21.7018 97.4213 21.8857 97.5578 21.9137 97.591C21.9418 97.6242 22.1257 97.7607 22.3223 97.8944C22.5189 98.028 22.7028 98.1646 22.7309 98.1977C22.7589 98.2309 22.9428 98.3683 23.1394 98.5032C23.336 98.6381 23.5739 98.8179 23.6681 98.9029C23.7623 98.9878 24.0929 99.2092 24.4028 99.3947L24.9663 99.7323L25.4497 99.4029C25.9997 99.0283 29.2919 95.8026 29.6729 95.2651C29.8108 95.0705 30.0422 94.7974 30.187 94.6584C30.3318 94.5193 30.5612 94.2463 30.6968 94.0516C30.8324 93.857 31.0167 93.6294 31.1062 93.546C31.1958 93.4626 31.3797 93.2351 31.5147 93.0404C31.6498 92.8457 31.7877 92.6637 31.8212 92.6359C31.8547 92.6081 31.9933 92.4261 32.1292 92.2314C32.2651 92.0367 32.4237 91.8284 32.4817 91.7684C32.5398 91.7085 33.02 91.0031 33.5491 90.201C35.2762 87.5821 35.1793 87.74 36.5533 85.3044C36.8357 84.8038 37.7867 83.0063 38.6668 81.31C40.7332 77.3264 41.5377 75.8401 42.334 74.5346C42.9926 73.4549 43.7554 72.3004 43.8708 72.2088C43.9059 72.181 44.0457 71.9989 44.1815 71.8043C44.3175 71.6096 44.486 71.3918 44.5561 71.3203C44.6261 71.2487 44.7631 71.0568 44.8604 70.8936C44.9578 70.7305 45.088 70.5778 45.1499 70.5544C45.2644 70.5109 46.1854 70.6163 47.2952 70.7999C47.6323 70.8556 48.2184 70.9451 48.5975 70.9988C51.0838 71.3507 51.858 71.4495 53.4236 71.6147C54.7604 71.7556 61.8645 71.7582 62.9225 71.6181C64.3078 71.4347 65.5703 71.2121 66.4207 71.0016C66.6594 70.9425 67.0272 70.8546 67.2378 70.8064C67.5872 70.7263 69.0132 70.2459 70.1 69.8423C71.2013 69.4331 74.6113 67.6006 75.1104 67.1498C75.2043 67.0649 75.4421 66.885 75.6387 66.7501C75.8354 66.6152 76.0652 66.4322 76.1494 66.3436C76.2337 66.2549 76.462 66.0719 76.6568 65.937C76.8514 65.8021 77.4667 65.2433 78.024 64.695L79.0371 63.6982L79.6616 63.7524C80.0051 63.7822 80.6308 63.8553 81.0521 63.915C84.2492 64.3674 86.5987 64.5747 90.2957 64.7306C93.2351 64.8546 94.2261 64.8548 97.0368 64.7319C100.256 64.5911 102.491 64.3698 105.233 63.9201C107.174 63.6019 106.986 63.6356 108.604 63.3147C108.871 63.2618 109.273 63.1815 109.498 63.1364L109.906 63.0544L109.986 62.449C110.214 60.7173 110.281 60.1225 110.373 59.012C110.544 56.939 110.543 56.2783 110.366 56.3037C110.216 56.3252 109.788 56.4248 108.91 56.642C108.672 56.701 108.247 56.7936 107.966 56.8475C107.416 56.953 106.736 57.087 105.923 57.2502C105.642 57.3066 105.148 57.3962 104.825 57.4493C104.502 57.5024 103.95 57.5933 103.599 57.6513C102.76 57.7902 101.588 57.9326 100.203 58.0642C98.7441 58.2027 88.7261 58.2018 87.1293 58.063C84.4313 57.8284 83.0949 57.6543 83.0949 57.5377C83.0949 57.489 83.2045 57.2092 83.3385 56.9159C83.6203 56.2993 84.1031 55.1902 84.4069 54.4614C84.6195 53.9518 84.882 53.2231 85.7149 50.8301C85.9649 50.1121 86.2141 49.4418 86.2687 49.3406C86.362 49.1681 86.6449 49.1538 90.7833 49.112C94.9701 49.0696 96.4886 48.9959 98.1859 48.7529C98.5931 48.6945 99.2366 48.6029 99.6158 48.5492C100.855 48.3738 101.564 48.2508 103.114 47.9421C103.552 47.8548 104.029 47.7431 104.876 47.5298C105.55 47.3601 106.066 47.2335 106.459 47.1414C106.67 47.0922 107.095 46.975 107.404 46.8812C107.713 46.7872 108.287 46.6145 108.681 46.4972C109.819 46.1577 109.991 46.0506 109.909 45.7316C109.871 45.5829 109.799 45.2111 109.75 44.9052C109.631 44.165 109.485 43.4383 109.345 42.8827C109.281 42.6324 109.189 42.2229 109.14 41.9726C109.091 41.7223 109.004 41.3355 108.947 41.113C108.89 40.8905 108.813 40.5861 108.777 40.4365C108.74 40.2868 108.623 40.0859 108.515 39.9899C108.33 39.8239 108.272 39.8307 107.326 40.1281C105.785 40.6125 105.24 40.7747 104.825 40.8717C104.351 40.9827 103.703 41.1403 103.165 41.2756C102.94 41.3323 102.527 41.4227 102.246 41.4766C101.965 41.5305 101.517 41.6186 101.25 41.6724C98.9629 42.1339 98.0029 42.2753 95.709 42.4889C94.2111 42.6284 88.6104 42.7124 88.6104 42.5954C88.6104 42.4557 88.9747 41.3638 89.1725 40.9108C89.2697 40.6883 89.4864 40.1877 89.6541 39.7984C90.1872 38.561 91.6811 35.579 92.1618 34.7927C92.6792 33.9465 94.2248 31.6353 94.3259 31.5568C94.3618 31.529 94.5015 31.3469 94.6366 31.1523C94.7716 30.9576 94.9095 30.7756 94.943 30.7478C94.9765 30.72 95.1155 30.5379 95.2518 30.3433C95.3882 30.1486 95.7548 29.7391 96.0665 29.4332C96.3782 29.1273 96.746 28.7177 96.8838 28.523C97.2003 28.0762 97.4536 27.8254 97.905 27.512C98.1016 27.3756 98.5153 27.0114 98.8242 26.7028C99.1332 26.3942 99.5469 26.0312 99.7435 25.8961C99.9401 25.7611 100.17 25.578 100.254 25.4893C100.338 25.4006 100.568 25.2186 100.765 25.0848C101.153 24.8208 101.48 24.4933 101.48 24.3686C101.48 24.3256 101.419 24.2301 101.346 24.1566C101.272 24.0832 100.92 23.5907 100.563 23.0623C100.206 22.5339 99.8848 22.0789 99.8493 22.0511C99.8138 22.0233 99.6742 21.8412 99.5391 21.6466C99.4041 21.4519 99.2202 21.2244 99.1307 21.141C99.0411 21.0575 98.8572 20.83 98.7221 20.6353C98.587 20.4407 98.4015 20.2131 98.31 20.1297C98.2184 20.0463 98.0615 19.8528 97.9614 19.6999C97.751 19.3785 97.5157 19.3466 97.2349 19.6015C97.1259 19.7004 96.8759 19.8917 96.6793 20.0266C96.4827 20.1615 96.2529 20.3444 96.1686 20.4331C96.0844 20.5218 95.8546 20.7047 95.6579 20.8396C95.4613 20.9745 95.0936 21.2921 94.8408 21.5455C94.588 21.7988 94.2203 22.1182 94.0237 22.2553C93.5612 22.5778 91.9002 24.2224 91.5744 24.6803C91.4359 24.875 91.1133 25.239 90.8574 25.4893C90.6016 25.7396 90.2807 26.1036 90.1445 26.2983C90.0082 26.493 89.8235 26.7205 89.7339 26.8039C89.6443 26.8874 89.4605 27.1149 89.3254 27.3095C89.1903 27.5042 89.0506 27.6862 89.0147 27.714C88.979 27.7419 88.5816 28.3107 88.1317 28.9781C85.9513 32.2129 84.6218 34.7641 82.9808 38.863C82.875 39.1272 82.6984 39.5594 82.5883 39.8237C82.4782 40.0879 82.2852 40.6226 82.1595 41.0119C81.856 41.9516 81.7177 42.1077 81.2584 42.0281C80.8631 41.9596 80.0443 41.8229 79.137 41.6739C78.8139 41.6208 78.3084 41.5298 78.0135 41.4716C77.7185 41.4135 77.236 41.3189 76.941 41.2615C76.2583 41.1286 75.5159 40.9816 74.8982 40.857C74.0387 40.6835 73.3487 40.5499 73.0122 40.4914C72.3969 40.3846 72.3996 40.2505 73.0392 39.17C73.3614 38.6258 73.7986 37.8846 74.0109 37.5231C74.2231 37.1616 74.6709 36.297 75.006 35.6017C75.7907 33.9734 76.3009 32.8626 77.8971 29.3068C78.7549 27.3961 80.51 23.9096 81.112 22.9207C82.1595 21.2002 82.6105 20.4859 82.6832 20.4331C82.7215 20.4053 82.9527 20.0867 83.197 19.7252C83.4413 19.3637 83.6699 19.0452 83.7049 19.0173C83.74 18.9895 83.8791 18.8075 84.0142 18.6128C84.1492 18.4182 84.3331 18.1907 84.4227 18.1072C84.5123 18.0238 84.6972 17.7963 84.8336 17.6016C84.97 17.4069 85.3366 16.9974 85.6483 16.6915C85.9601 16.3856 86.3282 15.976 86.4666 15.7814C86.7885 15.3283 87.4378 14.6855 87.8954 14.3667C88.092 14.2297 88.5057 13.8653 88.8146 13.5566C89.1236 13.248 89.5373 12.8851 89.7339 12.7501C90.0854 12.5087 90.2399 12.3515 90.243 12.2322C90.2458 12.1253 89.897 11.7841 89.5296 11.5342C89.333 11.4005 89.1491 11.2639 89.1211 11.2308C89.093 11.1976 88.9091 11.0611 88.7125 10.9274C88.5159 10.7937 88.332 10.656 88.3039 10.6213C88.2759 10.5866 87.9541 10.3603 87.589 10.1184C87.2238 9.87651 86.9021 9.64828 86.874 9.61116C86.7479 9.44481 85.072 8.39929 84.9314 8.39929C84.8451 8.39929 84.6626 8.47695 84.5258 8.57181ZM54.3428 43.2763C54.9046 43.3332 55.6859 43.4255 56.0792 43.4816C58.1243 43.7731 58.4794 43.8507 58.4794 44.0059C58.4794 44.103 56.9037 44.9097 56.2101 45.1677C55.1526 45.5611 53.0821 46.2546 52.7086 46.3406C51.2374 46.6795 50.1765 46.8344 48.623 46.9374C46.8504 47.0548 46.4735 47.0544 44.4353 46.9331C41.7681 46.7745 40.2987 46.5902 40.2987 46.4144C40.2987 46.1178 43.2223 44.5754 44.7286 44.0773C46.1319 43.6132 46.9298 43.4499 48.4871 43.308C48.9178 43.2688 49.3065 43.2007 49.3508 43.1567C49.4531 43.0551 52.9958 43.14 54.3428 43.2763ZM68.6933 46.1159C68.9461 46.1801 69.3598 46.2723 69.6126 46.3209C70.0504 46.4052 70.4917 46.5077 71.4 46.7363C71.6247 46.793 72.0383 46.8834 72.3192 46.9373C73.3399 47.1332 73.758 47.2205 74.2088 47.3322C74.7504 47.4663 75.4717 47.6091 76.2516 47.7367C76.5605 47.7872 77.0661 47.8782 77.3751 47.9389C77.6841 47.9996 78.1897 48.0833 78.4986 48.1248C79.0941 48.205 79.52 48.3842 79.52 48.5547C79.52 48.6828 78.869 50.6172 78.6688 51.084C78.5878 51.2731 78.4194 51.678 78.2947 51.9839C77.5006 53.931 76.5728 55.8469 76.2285 56.2504C75.9996 56.5186 75.9857 56.5212 75.2813 56.4242C74.888 56.37 74.2905 56.2801 73.9535 56.2242C72.8715 56.0454 71.753 55.8962 69.3572 55.6117C68.1675 55.4705 61.8393 55.468 60.7775 55.6085C59.3938 55.7915 58.153 56.0102 57.2538 56.2294C57.001 56.2911 56.6333 56.3789 56.4367 56.4246C55.9972 56.5268 53.0186 57.5388 52.249 57.8473C51.94 57.9712 51.5136 58.1362 51.3014 58.2141C50.8407 58.3831 49.2293 59.1986 48.1634 59.8023C47.225 60.3338 44.9007 61.8668 44.6907 62.0928C44.6064 62.1834 44.3766 62.369 44.18 62.5052C43.9834 62.6413 43.6409 62.9271 43.419 63.1402C43.0917 63.4545 42.9662 63.5154 42.7551 63.4618C42.6119 63.4254 42.2419 63.3557 41.9329 63.3068C41.624 63.2579 41.1184 63.1682 40.8094 63.1076C40.5005 63.0469 39.9834 62.9538 39.6604 62.9007C39.3373 62.8476 38.7858 62.7571 38.4347 62.6995C38.0836 62.642 37.4746 62.5501 37.0814 62.4954C36.6881 62.4407 36.0676 62.3522 35.7025 62.2986C34.6259 62.1407 33.5589 61.9959 32.7405 61.8967C31.6206 61.7609 31.2133 61.6803 31.1522 61.5825C31.1223 61.5347 31.1671 61.363 31.2517 61.2011C31.3364 61.0391 31.517 60.594 31.6533 60.2121C32.1195 58.9058 32.3441 58.304 32.5542 57.7985C32.6698 57.5205 32.856 57.0654 32.9678 56.7873C33.6789 55.0201 34.7731 52.7322 35.0077 52.522C35.1878 52.3607 35.203 52.3613 36.6217 52.5912C41.4489 53.3736 45.8339 53.6609 49.1337 53.411C50.7618 53.2877 52.6615 53.0257 53.5257 52.8052C53.7504 52.7479 54.1181 52.6586 54.3428 52.6068C55.1433 52.4222 57.2524 51.7455 58.173 51.378C58.482 51.2547 58.9081 51.0901 59.12 51.0124C60.2107 50.6121 64.5457 48.2359 65.1009 47.7339C65.1948 47.649 65.4325 47.4691 65.6291 47.3342C65.8258 47.1993 66.0556 47.0164 66.1398 46.9277C66.2241 46.839 66.4539 46.6561 66.6505 46.5211C66.8471 46.3862 67.0999 46.1917 67.2123 46.0888C67.4331 45.8867 67.8162 45.8937 68.6933 46.1159ZM68.9487 62.0687C69.9416 62.1671 70.2535 62.259 70.1998 62.4374C70.0859 62.8154 66.0788 64.4877 64.6844 64.7392C64.4176 64.7874 63.9579 64.8748 63.663 64.9336C62.2743 65.2103 61.4924 65.2564 58.2752 65.251C53.6977 65.2433 52.6575 65.1664 52.6575 64.8351C52.6575 64.773 53.8566 64.189 54.8535 63.7656C55.3624 63.5495 57.589 62.8089 58.0709 62.6954C58.2675 62.6491 58.6352 62.5608 58.888 62.4991C59.7484 62.2893 60.3679 62.1842 61.1523 62.1149C61.583 62.0769 61.9712 62.0104 62.0149 61.967C62.1165 61.8662 67.7356 61.9486 68.9487 62.0687ZM71.4128 72.8875C71.3688 72.9313 70.7504 72.9993 70.0386 73.0384C68.6219 73.1164 67.3915 73.2501 66.5995 73.4123C66.3186 73.4699 65.859 73.561 65.5781 73.6149C65.2972 73.6688 64.8605 73.7634 64.6078 73.825C64.355 73.8867 63.9873 73.9746 63.7906 74.0203C63.3759 74.1168 61.6461 74.7116 60.8286 75.0388C60.5196 75.1625 60.0918 75.3279 59.8778 75.4063C58.688 75.8426 54.2395 78.4804 53.6789 79.0821C53.5946 79.1725 53.3648 79.3559 53.1682 79.4897C52.9716 79.6235 52.7418 79.8055 52.6575 79.8942C52.5733 79.9829 52.3434 80.1669 52.1468 80.3029C51.6831 80.6237 49.4109 82.8733 49.0868 83.3325C48.9495 83.5271 48.7637 83.7546 48.6741 83.8381C48.5845 83.9215 48.4007 84.149 48.2657 84.3437C48.1305 84.5384 47.9926 84.7204 47.9591 84.7482C47.9256 84.776 47.7877 84.958 47.6527 85.1527C47.5177 85.3474 47.3782 85.5294 47.3426 85.5572C47.2525 85.6277 46.0808 87.3672 45.6906 88.0097C45.1843 88.8435 44.4337 90.2034 43.3606 92.2314C42.1274 94.5621 41.0694 96.5162 40.5408 97.4393C40.1445 98.1315 38.4912 100.626 38.3623 100.726C38.3264 100.754 38.1863 100.936 38.0507 101.13C37.9151 101.325 37.6858 101.598 37.541 101.737C37.3961 101.876 37.1649 102.149 37.0271 102.344C36.8892 102.538 36.305 103.165 35.7287 103.735C35.1526 104.306 34.6811 104.807 34.6811 104.848C34.6811 104.89 34.8304 104.976 35.013 105.04C35.1957 105.104 35.8736 105.347 36.5196 105.579C38.6524 106.347 40.4906 106.929 41.1283 107.038C41.4408 107.091 41.5443 107.058 41.7961 106.821C41.96 106.667 42.205 106.381 42.3406 106.187C42.4762 105.992 42.6605 105.764 42.7501 105.681C42.8396 105.598 43.0235 105.37 43.1585 105.175C43.2936 104.981 43.4315 104.799 43.465 104.771C43.4985 104.743 43.6364 104.561 43.7714 104.366C43.9065 104.172 44.046 103.99 44.0815 103.962C44.1171 103.934 44.4308 103.49 44.7786 102.976C45.8306 101.42 46.4798 100.307 47.8618 97.6921C49.3567 94.8634 50.4316 92.8664 50.8828 92.0797C51.2806 91.386 52.9336 88.8928 53.0619 88.7932C53.0977 88.7654 53.2384 88.5833 53.3746 88.3887C53.5108 88.194 53.8316 87.83 54.0875 87.5797C54.3433 87.3294 54.6649 86.9653 54.8019 86.7707C55.1113 86.3312 55.1756 86.2675 55.6195 85.9612C55.8162 85.8255 56.1839 85.5071 56.4367 85.2538C56.6894 85.0005 57.0571 84.6829 57.2538 84.5481C57.4504 84.4132 57.6342 84.2741 57.6623 84.2389C57.7425 84.1385 59.4716 83.0068 60.3179 82.5008C61.211 81.9669 62.5732 81.2802 63.1994 81.0484C64.3817 80.6103 65.1 80.3657 65.4249 80.29C65.6215 80.2443 65.9892 80.1564 66.242 80.0947C69.8415 79.217 74.5367 79.1561 81.9203 79.8916C83.5852 80.0573 84.918 80.1891 86.0314 80.2977C86.6072 80.3538 87.5493 80.4464 88.1252 80.5032C92.1535 80.9006 94.3779 81.0148 99.0692 81.065C102.812 81.1052 103.475 81.0905 103.614 80.9645C103.781 80.8146 105.599 77.1911 106.156 75.8998C106.323 75.5105 106.535 75.0197 106.626 74.8093C106.858 74.2718 106.841 74.1944 106.51 74.2824C105.835 74.462 103.476 74.5512 99.4371 74.5498C94.8709 74.5482 92.6628 74.4431 88.5593 74.0322C87.9975 73.976 87.0668 73.884 86.491 73.8278C85.9151 73.7716 84.973 73.6796 84.3971 73.6235C83.8213 73.5673 82.8906 73.4756 82.3288 73.4196C80.1483 73.2024 78.9963 73.1085 77.324 73.0114C74.7896 72.8643 71.5053 72.7954 71.4128 72.8875ZM76.9267 86.0353C76.8835 86.0782 76.4038 86.1455 75.8605 86.1849C74.5418 86.2804 72.6227 86.5525 71.783 86.763C71.1914 86.9112 70.5522 87.0667 70.1232 87.1665C69.7898 87.244 67.661 87.9608 66.6721 88.3286C66.0446 88.5619 64.6825 89.2486 63.7906 89.7812C62.9543 90.2808 61.829 91.0162 61.7479 91.1163C61.7198 91.151 61.5359 91.2906 61.3393 91.4266C60.8753 91.7477 58.1954 94.4009 57.8709 94.8606C57.7334 95.0553 57.5476 95.2828 57.458 95.3662C57.3685 95.4497 57.1846 95.6772 57.0496 95.8719C56.9145 96.0665 56.7766 96.2486 56.7431 96.2764C56.7096 96.3042 56.5717 96.4862 56.4367 96.6809C56.3016 96.8755 56.1625 97.0576 56.1275 97.0854C56.0924 97.1132 55.8639 97.4317 55.6195 97.7932C55.3752 98.1548 55.1444 98.4733 55.1067 98.5011C55.069 98.5289 54.2886 99.6666 53.3725 101.029C52.4564 102.392 51.676 103.53 51.6383 103.557C51.6006 103.585 51.3698 103.904 51.1254 104.265C50.8811 104.627 50.6525 104.945 50.6175 104.973C50.5825 105.001 50.4434 105.183 50.3083 105.378C50.1733 105.572 50.0354 105.754 50.0019 105.782C49.9684 105.81 49.8305 105.992 49.6954 106.187C49.5604 106.381 49.3765 106.609 49.2869 106.692C49.1974 106.776 49.0121 107.003 48.8752 107.198C48.7383 107.392 48.4763 107.701 48.2928 107.884C48.1093 108.066 47.9591 108.255 47.9591 108.302C47.9591 108.485 49.8172 108.683 52.7597 108.813C53.8551 108.861 54.9641 108.931 55.2243 108.969C55.6841 109.035 55.7051 109.026 55.9897 108.648C56.1507 108.434 56.3094 108.237 56.3426 108.209C56.3757 108.181 56.6938 107.726 57.0495 107.198C57.4051 106.669 57.7275 106.214 57.7657 106.187C57.8039 106.159 58.5847 105.021 59.5008 103.658C60.4169 102.296 61.1961 101.158 61.2323 101.13C61.2684 101.103 61.4086 100.921 61.5436 100.726C61.6786 100.531 61.8165 100.349 61.85 100.321C61.8835 100.294 62.0218 100.112 62.1574 99.9168C62.293 99.7222 62.5223 99.4491 62.6671 99.3101C62.812 99.1711 63.0431 98.898 63.1808 98.7034C63.5051 98.2452 64.7608 97.0025 65.2206 96.6848C65.4172 96.549 65.6011 96.4091 65.6291 96.3743C65.9131 96.0206 68.4958 94.5784 69.5327 94.1942C70.7396 93.7471 71.4358 93.5111 71.783 93.4315C71.9937 93.3833 72.3614 93.2954 72.6001 93.2363C74.9183 92.6625 76.6146 92.515 80.8478 92.5195C84.1332 92.5229 85.3373 92.5679 89.4275 92.84C90.2982 92.8979 91.7522 92.9687 92.6585 92.9974L94.3065 93.0496L95.4696 91.9074C96.1093 91.2791 96.7451 90.6058 96.8826 90.4112C97.02 90.2165 97.2962 89.8979 97.4964 89.7033C97.6966 89.5086 97.9718 89.1901 98.1077 88.9954C98.2437 88.8008 98.4282 88.5732 98.5178 88.4898C98.6074 88.4064 98.7913 88.1788 98.9263 87.9842C99.0614 87.7895 99.1997 87.6075 99.2338 87.5797C99.3729 87.4661 99.6413 87.0207 99.6413 86.9035C99.6413 86.8084 99.0629 86.7654 97.2666 86.7272C95.0207 86.6793 93.5131 86.606 89.836 86.3665C88.9653 86.3098 87.5175 86.2159 86.6187 86.1579C84.5676 86.0255 77.0322 85.9302 76.9267 86.0353ZM88.9767 97.1612C88.9348 97.2029 88.4905 97.2712 87.9894 97.3129C86.1004 97.4701 83.3227 97.8087 81.5883 98.0931C81.2373 98.1506 80.6857 98.2398 80.3627 98.2912C80.0396 98.3425 79.5685 98.4364 79.3157 98.4997C79.0629 98.5631 78.6493 98.6547 78.3965 98.7034C77.7103 98.8354 77.1834 98.9645 76.558 99.1535C76.249 99.2469 75.6975 99.4131 75.3323 99.5231C74.9672 99.6329 74.4501 99.8119 74.1833 99.9209C73.9165 100.03 73.4569 100.215 73.1619 100.331C72.2103 100.708 71.1123 101.243 70.3275 101.713C69.4863 102.217 68.365 102.95 68.2848 103.049C68.2567 103.084 68.0728 103.222 67.8762 103.357C67.6796 103.491 67.3578 103.764 67.1612 103.962C66.9646 104.16 66.6429 104.434 66.4463 104.571C65.9903 104.887 65.1395 105.729 64.8117 106.187C64.6724 106.381 64.1788 106.917 63.7149 107.376C63.2509 107.836 62.8714 108.261 62.8714 108.322C62.8714 108.435 63.1438 108.416 64.3779 108.213C64.7291 108.155 65.2805 108.065 65.6036 108.011C66.4018 107.88 67.1261 107.737 67.6464 107.609C67.8851 107.549 68.2643 107.456 68.489 107.4C68.7137 107.344 69.07 107.256 69.2806 107.202C69.4913 107.149 69.8475 107.064 70.0722 107.013C70.2969 106.961 70.8714 106.797 71.3489 106.647C71.8264 106.497 72.6537 106.24 73.1874 106.075C73.7211 105.91 74.3761 105.686 74.6429 105.576C74.9097 105.467 75.3579 105.287 75.6387 105.175C75.9196 105.064 76.3907 104.878 76.6857 104.761C77.3082 104.514 79.1502 103.686 80.1839 103.189C80.8346 102.875 81.4368 102.55 83.5545 101.367C84.2444 100.982 87.9956 98.5368 88.0997 98.4046C88.1278 98.3689 88.3084 98.2305 88.5012 98.0971C88.9536 97.7839 89.5296 97.2601 89.5296 97.1619C89.5296 97.0627 89.0763 97.0622 88.9767 97.1612Z" fill="white"/>
</svg>
