<svg width="22" height="22" viewBox="0 0 22 22" fill="none" xmlns="http://www.w3.org/2000/svg">
    <path d="M4.95757 1.2637L1.15277 3.13845L1.15153 3.13922L1.14985 3.14023C1.05736 3.201 1 3.30253 1 3.41709V3.42162V4.60668C1 13.6605 8.33949 21 17.3933 21H18.5829C18.6587 21 18.784 20.9455 18.8686 20.8329L20.7363 17.0424L15.3888 13.0316L12.9464 14.8634L12.6514 15.0846L12.2834 15.0614C10.8984 14.974 9.57601 14.3829 8.59208 13.3962C7.61018 12.4115 7.02206 11.1019 6.93843 9.71379L6.91635 9.34734L7.13662 9.05365L8.96844 6.61122L4.95757 1.2637Z" stroke="white" stroke-width="2"/>
</svg>
